<svg xmlns="http://www.w3.org/2000/svg" version="1.1" xmlns:xlink="http://www.w3.org/1999/xlink" xmlns:svgjs="http://svgjs.dev/svgjs" width="100%" height="100%" viewBox="0 0 1000 600"><rect width="auto" height="600" x="0" y="0" fill="#ffffff"/><g><rect width="333.3333333333333" height="333.3333333333333" rx="13.333333333333334" ry="13.333333333333334" y="230.4054537807852" fill="#8aaae5" transform="matrix(0.6004326163909895,0,0,0.6004326163909893,0,61.58494476986016)" x="208.1832275390625"/><path d="M398.9421514217726 466.71498600698305L398.9421514217726 472.07212870193644L352.87072424517385 472.07212870193644L352.87072424517385 466.71498600698305Q358.67429549803995 463.7090337170371 365.5195333860359 461.5661766390557L365.5195333860359 461.5661766390557L365.5195333860359 410.79236865244224Q365.5195333860359 394.51260724055624 360.8171525760213 385.0780837166662Q356.08500986214585 375.6435601927761 343.67429595217055 375.6435601927761L343.67429595217055 375.6435601927761Q338.3171532572172 375.6435601927761 333.7040581587852 377.5780839437315Q329.09096306035315 379.51260769468684 325.54929650091174 382.81617902324143Q322.0373918453312 386.1495122556568 319.44810620943707 390.31617879617613Q316.8885824774038 394.51260724055624 315.37072538050035 399.0066547235449L315.37072538050035 399.0066547235449L315.37072538050035 461.5661766390557Q322.0373918453312 462.84593850507235 328.2278678483884 466.71498600698305L328.2278678483884 466.71498600698305L328.2278678483884 472.07212870193644L281.9481073447636 472.07212870193644L281.9481073447636 466.71498600698305Q287.30525003971695 463.917367044063 296.0850116786683 461.5661766390557L296.0850116786683 461.5661766390557L296.0850116786683 377.3697506167055L281.9481073447636 375.6435601927761L281.9481073447636 370.0780841707968Q287.5135833667429 367.72689376578944 294.80524981265165 365.7923700148341Q302.0969162585604 363.85784626387874 310.013582685547 362.3697510708361L310.013582685547 362.3697510708361L315.37072538050035 362.3697510708361L315.37072538050035 386.3578455826828L315.60882061138716 386.3578455826828Q320.1028680943758 376.5066554047408 328.5552487908578 369.42332228585803Q337.0373913912006 362.3697510708361 349.03143864712393 362.3697510708361L349.03143864712393 362.3697510708361Q357.60286695904927 362.3697510708361 364.3588191354627 364.39356053337406Q371.0850094080152 366.417369995912 375.6088187948647 371.56617936383935Q380.10286627785337 376.71498873176677 382.45405668286065 385.40546465913553Q384.805247087868 394.06617868264345 384.805247087868 407.36974970844426L384.805247087868 407.36974970844426L384.805247087868 461.5661766390557Q393.3766753997933 463.0840337359591 398.9421514217726 466.71498600698305L398.9421514217726 466.71498600698305ZM467.75167314806237 465.85189079501833L467.75167314806237 472.07212870193644L412.87072242865133 472.07212870193644L412.87072242865133 465.85189079501833Q421.23381741355075 462.0126051969685 430.0135790525021 460.703081427091L430.0135790525021 460.703081427091L430.0135790525021 333.649513845114Q425.72786489653936 332.78641863314925 421.4421507405767 331.3876091516892Q417.156436584614 329.9887996702292 412.87072242865133 328.2923711501606L412.87072242865133 328.2923711501606L412.87072242865133 322.0721332432426L467.75167314806237 322.0721332432426L467.75167314806237 328.2923711501606Q463.8826256461516 329.9887996702292 459.38857816316295 331.3876091516892Q454.89453068017434 332.78641863314925 450.60881652421165 333.649513845114L450.60881652421165 333.649513845114L450.60881652421165 460.703081427091Q455.1028640072003 461.5661766390557 459.596911490189 462.84593850507235Q464.0909589731776 464.15546227494985 467.75167314806237 465.85189079501833L467.75167314806237 465.85189079501833Z " fill="#ffffff" transform="matrix(0.6004326163909895,0,0,0.6004326163909893,0,61.58494476986016)"/> fill="#8aaae5" transform="matrix(0.6004326163909895,0,0,0.6004326163909893,0,61.58494476986016)"/></g></svg>